<svg width="162" height="58" viewBox="0 0 162 58" fill="none" xmlns="http://www.w3.org/2000/svg">
<g clip-path="url(#clip0_1036_5685)">
<path fill-rule="evenodd" clip-rule="evenodd" d="M68.5657 34.8934C68.5657 37.1275 68.5657 39.3678 68.5657 41.6019C66.3163 41.6019 64.0607 41.6019 61.8113 41.6019C61.8113 41.5895 61.8113 41.5708 61.8113 41.5584L61.7737 41.6268C63.3777 43.1515 64.8501 44.9002 65.5456 47.0161C65.8213 47.8874 65.9341 48.8208 65.8213 49.7294C65.7211 50.3766 65.5456 50.974 65.295 51.5777C65.0068 52.2436 64.6058 52.8161 64.0795 53.3202C63.5782 53.7807 63.0206 54.1292 62.3815 54.3657C61.5982 54.6457 60.8213 54.7764 59.9942 54.7764C59.2862 54.7702 58.622 54.7017 57.9265 54.5586C57.1433 54.3968 56.3977 54.1603 55.6521 53.8678C55.2511 53.706 54.8877 53.4758 54.5242 53.2517C53.6658 52.7228 52.8262 52.1627 52.0117 51.5715C50.8463 50.7189 49.731 49.7979 48.6533 48.8395C48.7222 49.2378 48.7911 49.6361 48.86 50.0343C48.8788 50.4575 48.8976 50.8869 48.9227 51.3101C48.8851 51.7022 48.8538 52.1004 48.8162 52.4987C48.7285 52.8597 48.6407 53.2268 48.553 53.5878C48.4152 53.9176 48.2773 54.2412 48.1395 54.571C47.9515 54.8635 47.7698 55.156 47.5818 55.4423C47.3563 55.6912 47.1244 55.9464 46.8989 56.1953C46.6294 56.4069 46.3663 56.6122 46.0969 56.8238C45.7961 56.9919 45.4891 57.1537 45.1883 57.3217C44.8563 57.4399 44.5179 57.5644 44.1858 57.6826C43.8224 57.7573 43.4653 57.832 43.1019 57.9067C42.7196 57.9316 42.3312 57.9564 41.949 57.9813C41.5417 57.9564 41.1407 57.9316 40.7334 57.9129C40.3136 57.8382 39.8875 57.7635 39.4677 57.6889C38.5154 57.415 37.5692 57.1474 36.692 56.6931C36.1532 56.4131 35.6645 56.1082 35.1695 55.7472C34.5053 55.2431 33.9163 54.6706 33.39 54.0234C33.1331 53.6998 32.8825 53.37 32.6632 53.0215C31.8486 51.7084 31.2659 50.3206 30.8587 48.8333C30.4639 47.3522 30.2133 45.8586 30.0754 44.3339C30.0692 44.2343 30.0566 44.1534 30.0441 44.0788H28.9037C26.1155 46.4747 22.212 47.3148 18.4024 46.3004C13.1267 44.8878 9.55523 39.9217 11.648 34.632C12.5252 32.7775 13.5026 31.8191 15.1818 30.6492C15.5703 30.4313 15.9651 30.2198 16.3535 30.0019C16.5415 29.921 16.7357 29.8401 16.9237 29.753C13.1204 28.8382 9.3234 27.6745 5.93365 25.6893C4.97499 25.1167 4.0226 24.5193 3.20806 23.7539C1.04639 21.638 -0.83959 18.4019 0.394755 15.3464C0.733104 14.5622 1.1717 13.8528 1.79201 13.2616C3.38977 11.768 5.72061 11.712 7.7695 11.9672C10.4074 12.3281 12.8886 13.3674 15.2696 14.5C15.6831 14.6992 16.0904 14.8983 16.4976 15.0974C14.0164 11.8614 11.1593 7.92834 12.2745 3.59078C12.8009 1.68027 13.9412 0.790354 15.7708 0.161813C23.4213 -1.18862 28.4464 6.08005 31.5166 11.9112C31.6481 12.1725 31.7797 12.4401 31.9113 12.7015C32.0303 12.3406 32.1619 11.9796 32.306 11.6311C32.9138 10.1376 33.8223 8.74357 35.1005 7.7292C35.6331 7.31847 36.1782 6.96997 36.8048 6.72104C38.0016 6.26675 39.2171 6.03649 40.5016 6.03649C41.172 6.04271 41.8299 6.11739 42.5003 6.17962C42.5003 7.6234 42.5003 9.06095 42.5003 10.5047C43.1582 10.5047 43.8224 10.5047 44.4803 10.5047C44.4803 9.06095 44.4803 7.61718 44.4803 6.16718C46.7297 6.16718 48.9854 6.16718 51.2347 6.16718C51.2347 8.4013 51.2347 10.6416 51.2347 12.8758C49.7811 12.8758 48.3275 12.8758 46.8738 12.8758C46.8738 13.5292 46.8738 14.1889 46.8738 14.8423C48.2021 14.8423 49.5305 14.8423 50.8588 14.8361C50.8212 15.4833 50.8149 16.1305 50.7084 16.7652C50.5518 17.6365 50.3262 18.5202 49.9628 19.3292C49.6809 19.9453 49.3738 20.5365 49.0355 21.1277C48.5593 21.8371 48.058 22.5155 47.5129 23.1751C49.2423 23.0631 50.9591 23.0444 52.6884 23.1129C53.5217 23.1689 54.3363 23.2436 55.1634 23.3369C55.7085 23.4303 56.2536 23.5174 56.7987 23.6107C57.607 23.7912 58.3839 23.9966 59.1734 24.2455C59.6747 24.4446 60.1697 24.6438 60.6709 24.8429C60.909 24.9612 61.1471 25.0856 61.3852 25.2039C61.617 25.3408 61.8426 25.4715 62.0744 25.6084C62.2937 25.7577 62.513 25.9071 62.7261 26.0564C62.9328 26.2245 63.1396 26.3863 63.3464 26.5543C63.5406 26.7348 63.7286 26.9215 63.9228 27.1019C64.0983 27.3011 64.28 27.5064 64.4554 27.7056C64.6183 27.9234 64.775 28.1412 64.9379 28.359C65.082 28.5955 65.2198 28.832 65.3639 29.0685C65.483 29.3236 65.602 29.5725 65.7273 29.8277C65.8276 30.0953 65.9278 30.3691 66.0218 30.6367C66.2223 31.4022 66.4291 32.1738 66.6296 32.9393C65.8276 32.9393 65.0256 32.9393 64.2236 32.9393C64.2236 33.5865 64.2236 34.2399 64.2236 34.8871C65.6584 34.8934 67.1121 34.8934 68.5657 34.8934Z" fill="white"/>
<path fill-rule="evenodd" clip-rule="evenodd" d="M9.361 13.4919C11.767 14.1391 13.9851 15.1908 16.2094 16.2923L20.7834 18.5575C19.2232 16.6097 17.6192 14.6929 16.1781 12.658C14.4237 10.1438 12.9575 7.62341 13.2959 4.51182C14.0603 0.16182 18.9037 0.784137 21.811 2.18435C23.1581 3.01203 24.2483 3.89572 25.3574 5.03457C27.4125 7.26246 29.0479 9.78285 30.4514 12.4588C31.0529 13.6474 31.6168 14.861 32.187 16.0683C32.6068 14.5871 32.9639 13.0874 33.5842 11.6809C35.1194 8.48221 37.6883 6.92641 41.2911 7.26869C41.2911 8.74358 41.2911 10.2185 41.2911 11.6934C42.751 11.6934 44.2109 11.6934 45.6645 11.6871C45.6645 13.1371 45.6645 14.5809 45.6645 16.0309C46.9678 16.0309 48.2773 16.0309 49.5806 16.0247C49.4177 19.435 46.761 22.2043 44.6558 24.6313C50.9779 23.8783 63.2461 23.3929 65.0569 31.7507H63.0018V36.082H64.0857H67.3627V40.4133H63.0018V36.9034V36.082C61.1283 38.3286 57.419 37.9676 54.4867 37.5631C57.4754 39.679 60.7461 41.8135 62.983 44.7447C64.5055 46.8481 65.201 48.9577 64.0732 51.3661C62.9579 53.3513 61.0782 53.7558 58.9228 53.5318C54.1421 52.841 49.9002 48.3914 46.4728 45.2736C47.5944 49.5552 49.2548 54.5897 43.835 56.55C38.2209 57.6951 33.9665 54.4092 32.2309 49.3436C31.6983 47.6322 31.385 45.8648 31.2346 44.085H33.1958V44.0663H33.2772V39.735C31.8173 39.735 30.3637 39.735 28.9038 39.735H28.8223V39.7412C28.8223 40.5502 28.8223 41.3655 28.8223 42.1745C28.8035 42.1869 28.791 42.1994 28.7722 42.2118C24.6807 45.7341 20.113 46.5058 15.5014 42.9648C13.2019 40.8489 11.7796 38.2477 12.757 35.0614C13.7031 33.0575 14.9563 32.1303 16.8736 31.0723L20.6957 29.4232C19.1794 29.0685 17.6631 28.72 16.153 28.3404C14.1731 27.8301 12.2432 27.2513 10.3385 26.5107C7.21813 25.2474 4.1354 23.6294 2.27448 20.717C0.513817 17.7734 0.927354 13.9088 4.60533 13.1558C6.20308 12.8882 7.80711 13.1247 9.361 13.4919ZM50.0255 11.6871C48.5718 11.6871 47.1182 11.6871 45.6645 11.6871C45.6645 10.2434 45.6645 8.79959 45.6645 7.35581C47.1182 7.35581 48.5718 7.35581 50.0255 7.35581C50.0255 8.79959 50.0255 10.2434 50.0255 11.6871Z" fill="#373435"/>
<path fill-rule="evenodd" clip-rule="evenodd" d="M34.2797 29.3485C30.984 26.0067 7.32462 4.06374 17.4876 3.29207C27.6569 2.51417 33.3023 26.0191 34.2797 29.3485Z" fill="#BCB4DA"/>
<path fill-rule="evenodd" clip-rule="evenodd" d="M34.2797 29.3485C32.9827 31.8565 26.1844 50.0841 16.3473 40.9361C6.51011 31.7818 30.9777 29.7904 34.2797 29.3485Z" fill="#009982"/>
<path fill-rule="evenodd" clip-rule="evenodd" d="M34.2797 29.3485C30.2383 28.7635 3.54014 26.5232 3.30831 17.456C3.07021 8.38263 30.4013 26.8779 34.2797 29.3485Z" fill="#009FE3"/>
<path fill-rule="evenodd" clip-rule="evenodd" d="M34.2797 29.3485C37.8011 31.1781 49.0104 36.1442 56.2473 41.2783V45.1554L60.6145 45.1616C61.3977 46.0951 62.018 46.985 62.4692 47.8313C63.1772 50.0157 61.5544 52.2249 59.1797 51.7955C56.6045 51.3288 52.9516 48.5159 49.3488 45.1616V40.8178L44.9753 40.8116V40.8365C41.4916 37.2271 38.5592 33.8416 37.4 32.6655C35.9715 31.0786 34.9063 29.9459 34.2797 29.3485Z" fill="#FFDD00"/>
<path fill-rule="evenodd" clip-rule="evenodd" d="M42.2122 19.4661L37.8387 19.4599V15.1223L42.2122 15.1285V19.4661ZM41.2911 9.29743V11.6934L45.6646 11.6871V16.0309H47.5505C46.9114 21.8309 38.2209 26.853 34.2798 29.3485C34.2547 28.1661 34.0918 26.1373 34.0166 23.8161H37.8387V19.4723H34.0417C34.1043 18.2526 34.2234 17.0391 34.4364 15.9002C35.0504 12.5459 36.2347 10.4114 38.0079 9.68949C39.0041 9.27876 40.1507 9.16674 41.2911 9.29743Z" fill="#E30613"/>
<path fill-rule="evenodd" clip-rule="evenodd" d="M34.2797 29.3485C40.6332 27.7554 60.0694 21.7874 62.9955 31.7569H58.6471V27.4256H54.2861V31.7569H58.6471V36.082C51.0781 35.7833 37.0304 30.282 34.2797 29.3485Z" fill="#F39200"/>
<path fill-rule="evenodd" clip-rule="evenodd" d="M34.2797 29.3485C37.0993 33.2131 38.1143 35.0303 38.8976 36.306H37.6006V40.6498L41.6169 40.6436C45.8274 47.9434 48.4465 55.573 40.8901 54.7017C37.0241 54.3408 34.9878 51.808 34.004 48.4163H37.563V44.0725L33.2208 44.0663V39.735C33.39 35.5592 34.0604 31.5577 34.2797 29.3485Z" fill="#76B82A"/>
<path fill-rule="evenodd" clip-rule="evenodd" d="M71.4605 20.3C75.9091 14.0582 84.4555 11.5067 91.5734 14.668L90.433 22.1856C93.002 19.6653 97.6574 17.4249 101.436 19.8644C102.012 19.4661 102.589 19.0678 103.165 18.6695C104.744 19.5595 106.317 20.4431 107.896 21.3331C111.241 19.1798 114.982 18.3086 118.861 19.4786H134.644L135.214 13.5603H146.367L145.095 21.5073C147.645 19.3479 152.232 17.8605 155.371 19.8644L157.1 18.6695C158.736 19.5906 160.371 20.5054 162.013 21.4264C159.801 26.2432 158.654 31.9934 159.751 38.1045H149.694L149.162 38.0298C146.499 38.5837 145.152 38.1605 142.959 36.6794L142.833 38.1045H125.878L125.396 37.9054C122.545 39.1687 120.126 38.7642 117.952 36.6919C117.457 36.9283 116.962 37.1586 116.461 37.3826C116.724 43.0706 111.361 44.9811 105.721 44.6451L106.561 38.1356L95.7589 38.1107C95.5835 38.0859 95.408 38.061 95.2263 38.0361C92.6448 38.5775 90.527 38.2539 88.5847 36.0633C88.1273 36.2998 87.6761 36.5301 87.2125 36.7541C83.4468 38.5277 79.2174 39.2185 75.1886 37.9303C67.0619 35.2543 67.1622 26.3987 71.4605 20.3Z" fill="#373435"/>
<path fill-rule="evenodd" clip-rule="evenodd" d="M159.212 22.5217C157.846 26.1311 156.549 32.0307 157.15 35.9451H150.872C150.759 35.609 150.916 34.9183 150.979 34.5822C149.312 36.2376 146.248 36.7914 144.563 35.0801C141.937 32.4103 143.673 26.7846 145.697 24.314C147.382 22.2541 149.531 21.2273 152.15 21.2273C153.422 21.2273 154.419 21.7811 155.026 22.9013L157.207 21.4015L159.212 22.5217ZM87.8578 21.2646L87.3315 20.8912L86.8052 20.5676L86.5358 20.4245L86.2663 20.2938L85.9969 20.1756L85.7275 20.076L85.4581 19.9951L85.1949 19.9328L84.9318 19.8893L84.6686 19.8644L84.3992 19.8582L83.7789 19.9142L83.1836 20.076L82.6322 20.3311L82.1247 20.6672L81.6548 21.0779L81.2287 21.5447L80.8465 22.0612L80.5019 22.6213L80.2011 23.2125L79.938 23.8223L79.7124 24.4447L79.5307 25.067L79.3866 25.6893L79.2801 26.2929L79.2174 26.8717L79.1986 27.4193L79.2237 28.0603L79.2989 28.664L79.4242 29.2303L79.5996 29.7592L79.8189 30.2447L80.0884 30.6803L80.4017 31.0661L80.7588 31.3959L81.1535 31.6698L81.5859 31.8751L82.0558 32.012L82.5508 32.0805L83.0708 32.0743L83.616 31.9871L84.1799 31.8253L84.7563 31.5826L85.0759 31.4208L85.3829 31.2528L85.6774 31.0786L85.9593 30.8919L86.2288 30.6989L86.4857 30.4936L86.6799 30.3193L88.403 33.6736L87.1937 34.3271C86.824 34.52 86.4543 34.7004 86.0784 34.8809L85.3578 35.2045C85.0132 35.3477 84.6623 35.4846 84.3115 35.6153L83.641 35.8393L82.9894 36.026L82.3566 36.1753L81.7488 36.2811C81.3791 36.3185 81.0094 36.3496 80.6397 36.3745C80.2951 36.3932 79.9505 36.3994 79.6059 36.4056L79.0984 36.3994L78.6034 36.3745L78.1209 36.3371L77.651 36.2811L77.1999 36.2065L76.7613 36.1193L76.3352 36.0135L75.9217 35.8891L75.5269 35.7522L75.1447 35.5966L74.775 35.4286L74.4179 35.2419L74.0795 35.0427L73.7537 34.8249L73.4404 34.5947L73.1397 34.3457L72.7449 33.9723L72.3878 33.5865L72.0682 33.1882L71.7863 32.7775L71.5419 32.3543L71.3352 31.9187L71.1597 31.4706L71.0156 31.0101L70.9028 30.5434L70.8214 30.0704L70.7712 29.5912L70.7462 29.1058L70.7524 28.6142L70.7838 28.1163L70.8402 27.6185L70.9216 27.1206L71.0281 26.6228L71.1535 26.1249L71.3038 25.6333L71.473 25.1416L71.661 24.6562L71.8677 24.1771L72.0933 23.7041L72.3314 23.2436L72.5883 22.7893L72.8577 22.3474L73.1397 21.918L73.4279 21.5011L73.7287 21.1028L74.0419 20.717L74.3615 20.3498L74.6873 20.0013L75.0194 19.6715L75.3703 19.3479L75.7337 19.0367L76.1159 18.7318L76.5106 18.4393L76.9179 18.153L77.3377 17.8792L77.77 17.6178L78.2086 17.3689L78.6598 17.1324L79.1172 16.9084L79.5871 16.703L80.0633 16.5101L80.5458 16.3296L81.0345 16.1678L81.5232 16.0185L82.0182 15.8878L82.5132 15.7758L83.0145 15.6824L83.5157 15.6077L84.017 15.5517L84.5182 15.5082L85.0195 15.4895H85.5145L86.0095 15.5082L86.4982 15.5517L86.9869 15.614L87.4694 15.6949L87.9456 15.8007L88.4092 15.9313L88.8666 16.0807L89.111 16.1741L88.2902 21.5758L87.8578 21.2646ZM105.295 22.5217C103.929 26.1311 102.632 32.0307 103.234 35.9451H96.9557C96.8429 35.609 96.9995 34.9183 97.0622 34.5822C95.3955 36.2376 92.3316 36.7914 90.6461 35.0801C88.0208 32.4103 89.7564 26.7846 91.7802 24.314C93.4657 22.2541 95.6148 21.2273 98.2339 21.2273C99.5058 21.2273 100.502 21.7811 101.11 22.9013L103.29 21.4015L105.295 22.5217ZM98.6662 25.6084C98.7289 24.762 98.2527 24.4509 97.4569 24.4011C95.0571 24.8056 94.7501 29.6783 95.0947 31.5266C95.4895 32.5783 96.68 33.2069 97.5321 32.0494C97.9143 29.9024 98.2903 27.7554 98.6662 25.6084ZM118.441 21.7998L117.77 26.0689C117.288 25.6457 116.799 25.3097 116.304 25.0607C115.809 24.8118 115.333 24.6874 114.863 24.6874C112.564 24.6874 111.317 27.8736 111.317 29.7655C111.317 32.1116 112.864 33.4994 115.039 32.4912C115.64 32.2112 116.141 31.8689 116.549 31.4644L118.002 34.2088L116.956 34.7565C115.483 35.5095 114.155 35.97 112.977 36.1442C112.927 36.1504 112.877 36.1567 112.827 36.1567C113.084 36.2625 113.322 36.418 113.535 36.6234C113.998 37.059 114.23 37.5756 114.23 38.173C114.23 38.3348 114.218 38.4468 114.193 38.5153C114.08 39.455 113.491 40.3138 112.426 41.0979C111.361 41.8758 110.057 42.3487 108.51 42.5105L108.716 41.0668C109.431 41.0668 110.026 40.8863 110.502 40.5316C110.978 40.1768 111.248 39.735 111.317 39.206C111.361 38.9073 111.304 38.6584 111.141 38.4468C110.978 38.2414 110.734 38.1356 110.414 38.1356C110.183 38.1356 109.901 38.2228 109.569 38.3908C109.236 38.565 108.879 38.7891 108.51 39.0629L108.854 36.7914C109.312 36.4803 109.744 36.2687 110.151 36.1567C108.716 35.9886 107.538 35.5157 106.624 34.744C103.315 31.9498 105.139 27.0397 107.714 24.4571C110.264 21.8994 114.919 20.3622 118.441 21.7998ZM134.049 21.7998C132.89 26.4298 132.457 31.9809 132.163 35.9451H126.329L126.611 34.6942C125.158 35.5966 123.76 36.4616 122.695 36.4616C119.381 36.4616 118.716 34.3022 119.149 31.7258C119.675 28.5333 120.515 25.0359 120.515 21.7998H125.966L124.669 32.0432C124.519 33.2193 126.774 32.6841 126.874 31.9871L128.297 21.7998H134.049ZM143.71 15.8816L141.066 32.3605L140.747 35.9389H134.036L134.876 32.0743L136.912 19.5221L137.263 15.8878H143.71V15.8816ZM152.589 25.6084C152.652 24.762 152.175 24.4509 151.38 24.4011C148.98 24.8056 148.673 29.6783 149.017 31.5266C149.412 32.5783 150.603 33.2069 151.455 32.0494C151.837 29.9024 152.213 27.7554 152.589 25.6084Z" fill="white"/>
</g>
<defs>
<clipPath id="clip0_1036_5685">
<rect width="162" height="58" fill="white"/>
</clipPath>
</defs>
</svg>
